<svg width="41" height="49" viewBox="0 0 41 49" fill="none" xmlns="http://www.w3.org/2000/svg">
<g clip-path="url(#clip0_1_222)">
<path d="M38.7696 23.1303C38.7696 23.1303 38.6693 23.3243 38.709 23.8068C38.709 23.8352 35.9794 25.6425 34.9342 25.4793C33.5554 26.8986 32.1766 28.3156 30.7395 29.794C31.3997 30.5345 31.8733 31.5327 31.2387 32.7155C30.6508 33.8108 29.6546 34.0166 28.4625 33.8652C27.9772 34.9675 27.2307 35.7316 25.9078 35.6322C25.7725 35.6228 25.6046 35.812 25.4856 35.9421C25.4132 36.0202 25.4249 36.1763 25.3573 36.2662C25.1193 36.5714 24.865 37.1202 24.6177 37.1178C22.8283 37.1107 22.427 39.3982 20.7963 39.4621C20.1314 39.4881 19.3428 39.2089 18.8016 38.8044C18.132 38.3053 17.6631 37.5341 17.0868 36.8576C16.6995 37.1817 16.5199 37.326 16.3496 37.4774C14.9381 38.7358 13.2724 38.3502 12.4535 36.6234C12.2808 36.2615 11.8819 36.0084 11.5879 35.7056C10.2791 34.3619 8.96799 33.0207 7.66851 31.6699C7.47021 31.4641 7.37456 31.114 7.14826 30.9863C4.75694 29.6474 4.56097 28.5994 6.37604 26.3333C6.09374 26.0352 5.80679 25.73 5.4685 25.3728C5.20721 25.5976 5.00424 25.9122 4.74528 25.9666C4.10137 26.0991 3.58811 25.9619 3.48779 25.9122L12.5025 16.185C11.4643 15.1442 10.3678 14.0963 9.34594 12.9797C9.08931 12.6982 9.07064 12.1944 8.94233 11.7922C9.36927 11.9034 9.90585 11.8868 10.1998 12.1518C11.189 13.0365 12.0919 14.0182 13.0274 14.9668C13.8611 15.8136 13.9093 16.6779 13.172 17.5594C14.1776 18.9267 16.1349 19.1585 17.1731 17.8669C18.293 16.4736 19.5971 15.9035 21.3212 16.1519C21.7785 16.2182 22.259 16.2111 22.7186 16.1519C23.8618 16.0029 24.7647 16.3577 25.4319 17.3229C25.6769 17.6777 25.9475 18.016 26.2555 18.4252C26.6544 18.0633 26.8714 17.8669 27.0977 17.6611C27.03 17.5239 27.0067 17.3867 26.9274 17.3276C25.8868 16.5493 26.0712 15.8775 26.9694 15.0732C28.0169 14.1388 28.9244 13.0412 29.9603 12.0903C30.2355 11.8372 30.7511 11.8561 31.1571 11.7496C31.0498 12.1518 31.0614 12.6675 30.8141 12.9371C29.8086 14.0277 28.7238 15.0448 27.7369 16.0218C29.097 17.5168 30.2589 18.7398 31.1477 19.6577C31.8336 20.365 32.3282 20.8617 32.8415 21.3751C33.0258 21.5596 33.8913 22.4277 35.0508 23.523C35.4801 23.9299 36.7959 23.6909 37.9927 23.3645M6.46236 24.455C6.71199 24.7862 6.98261 25.141 7.24391 25.4864C8.73702 24.1569 9.59557 23.7524 10.3328 24.3982C11.7116 25.6023 12.9177 27.0145 14.1799 28.3534C14.3502 28.5356 14.3992 28.9354 14.5788 28.9921C15.6707 29.3399 16.3566 30.0282 16.6832 31.1519C16.7415 31.3482 17.1638 31.4476 17.4274 31.5682C19.1492 32.3536 19.5341 34.0781 18.3 35.4903C18.1506 35.663 17.9943 35.8286 17.6957 36.1597C18.3606 36.7748 18.9859 37.352 19.6111 37.9315C20.1127 38.3976 20.7496 38.5537 21.1159 37.9552C21.3445 37.5814 21.2535 36.8954 21.0949 36.4223C20.9736 36.0557 20.5023 35.8191 20.227 35.4879C19.8864 35.0787 19.1025 34.7333 19.7394 34.0875C19.8771 33.948 20.6469 34.3099 21.0226 34.5843C21.5218 34.9462 21.9208 35.4501 22.3617 35.8948C22.8703 36.4034 23.4512 36.5832 24.0018 36.0367C24.5524 35.4903 24.4007 34.8942 23.8991 34.3738C23.3579 33.8084 22.763 33.2903 22.28 32.6777C22.0911 32.4387 22.1424 32.0035 22.0841 31.6581C22.427 31.7101 22.8703 31.6415 23.0919 31.8355C23.8548 32.5026 24.5314 33.269 25.2546 33.9858C25.7725 34.4991 26.4421 34.6718 26.8457 34.0166C27.065 33.657 26.9927 32.8622 26.7337 32.5002C26.1691 31.7149 25.3619 31.1117 24.732 30.3665C24.5104 30.1016 24.5197 29.6356 24.4241 29.2618C24.83 29.3446 25.3503 29.2926 25.6209 29.5315C26.5261 30.331 27.352 31.2276 28.1895 32.1052C28.6981 32.6374 29.244 33.0112 29.8926 32.4127C30.5808 31.7764 30.2915 31.1661 29.727 30.596C28.6794 29.5409 27.6436 28.4764 26.6077 27.4072C24.627 25.3634 22.6533 23.3124 20.4883 21.0699C19.8444 21.8292 19.3965 22.4845 18.8249 23.0049C17.3901 24.3083 15.2111 24.3202 13.662 23.1539C13.0111 22.6643 12.8921 22.1912 13.5057 21.6258C14.0422 21.1314 14.6068 20.6654 15.0454 20.2845C13.8976 19.7097 12.9457 19.2342 12.0709 18.7942C10.2348 20.6465 8.33808 22.5578 6.45536 24.455H6.46236ZM28.0239 18.6523C26.3604 20.003 26.3698 19.9936 24.7297 18.3755C24.3517 18.0041 23.9061 17.4601 23.4675 17.4364C21.2979 17.3181 19.0745 16.9988 17.5394 19.2886C16.7812 20.4194 15.6427 21.2852 14.6185 22.3307C16.1839 23.0806 17.3691 22.7755 18.4143 21.7275C18.8832 21.2568 19.3708 20.8026 19.8071 20.3011C20.3297 19.7026 20.7846 19.6458 21.3422 20.2703C21.9674 20.9705 22.658 21.6069 23.3136 22.2787C25.4063 24.4219 27.4966 26.5698 29.5123 28.6373C31.0124 27.1565 32.3936 25.7939 33.7817 24.4243C31.8826 22.52 29.9836 20.6181 28.0215 18.6523H28.0239ZM10.7621 26.5296C10.4891 26.2055 10.2581 25.7584 9.89652 25.5573C9.65156 25.4225 9.1173 25.5171 8.88867 25.7158C8.10245 26.4066 7.38622 27.1825 6.656 27.9395C6.1544 28.4599 6.36204 28.907 6.80997 29.3517C7.27191 29.8106 7.72684 29.9194 8.21677 29.4274C8.93066 28.7106 9.64456 27.9939 10.3421 27.2605C10.4961 27.0997 10.5731 26.8631 10.7621 26.5296ZM13.1977 28.9543C12.8804 28.6089 12.6308 28.1713 12.2575 27.9797C12.0055 27.8519 11.483 27.956 11.2543 28.1571C10.4961 28.8218 9.81253 29.5741 9.1033 30.2955C8.56205 30.8467 8.73702 31.3222 9.22929 31.8024C9.70988 32.2708 10.1415 32.311 10.6221 31.8024C11.2917 31.0975 11.9915 30.4209 12.6634 29.716C12.8454 29.5244 12.9714 29.2807 13.1977 28.9495V28.9543ZM14.4085 30.2198C14.1239 30.3121 13.9373 30.3168 13.8393 30.4138C12.9784 31.2654 12.0849 32.0981 11.3196 33.0325C11.168 33.217 11.3966 33.9551 11.6626 34.194C11.9169 34.4234 12.6075 34.5322 12.8314 34.3501C13.6736 33.6617 14.4389 32.8622 15.1528 32.0342C15.3464 31.8095 15.3954 31.2678 15.2624 30.9934C15.0991 30.6551 14.6768 30.4469 14.4085 30.2198ZM17.943 33.7587C17.6234 33.4157 17.3714 32.9757 16.9981 32.803C16.7369 32.6824 16.2213 32.8243 15.9763 33.0372C15.2414 33.6759 14.5812 34.4021 13.8976 35.1023C13.375 35.637 13.403 36.2425 14.0073 36.5855C14.3735 36.7937 15.0781 36.8458 15.3791 36.621C16.1513 36.0438 16.7952 35.2821 17.4671 34.5725C17.6444 34.3856 17.7377 34.1183 17.943 33.7587Z" fill="#B5C6E6"/>
<path d="M0.0258918 20.036C0.00956087 19.8065 -0.0954237 14.2806 0.287187 13.384C0.707125 12.4 1.589 11.8322 2.2329 11.4206C8.88893 7.14134 14.3061 3.65452 19.2777 0.442103C19.539 0.274149 19.98 -0.0120828 20.5329 -0.000255014C21.0578 0.00920719 21.4661 0.274149 21.7134 0.430275L24.3403 2.12401C29.3003 5.32223 34.4305 8.63164 39.4931 11.8535C39.8081 12.0546 40.2373 12.3266 40.5173 12.8163C40.7973 13.3036 40.8206 13.8169 40.8369 14.193L41.0002 17.8951L39.1362 17.9803L38.9729 14.2782C38.9659 14.1102 38.9542 13.8548 38.9052 13.7696C38.8562 13.6845 38.6416 13.5472 38.5016 13.4574C33.4343 10.2307 28.3018 6.92134 23.3395 3.72075L20.7125 2.02702C20.6612 1.9939 20.5679 1.9324 20.5049 1.90165C20.4372 1.93476 20.3323 2.00337 20.2809 2.03412C15.3093 5.24653 9.89211 8.73572 3.23142 13.015C2.6785 13.3698 2.20724 13.6963 2.01593 14.0961C1.85729 14.8199 1.83396 19.1844 1.88762 19.8893L0.0258918 20.0312V20.036Z" fill="#FDC012"/>
<path d="M20.3111 49.0001C19.4945 49.0001 18.6337 48.8747 17.7191 48.5743C16.149 48.0562 14.7702 47.2259 13.2608 46.2749C11.5041 45.1679 9.79863 44.0584 8.24253 42.6793C4.62872 39.4764 2.14642 34.4235 0.65564 27.2275L2.48237 26.8396C3.88683 33.6193 6.17316 38.3338 9.47201 41.2552C10.9231 42.5397 12.5586 43.6042 14.2476 44.6687C15.6521 45.5558 16.9259 46.3246 18.2954 46.7764C20.2458 47.4175 22.0398 47.1502 24.4918 45.8562C29.1695 43.3795 33.2079 39.0719 35.8628 33.7257C36.9663 31.5045 37.8132 29.0798 38.6321 26.7355C38.7697 26.3428 38.9074 25.9501 39.045 25.5598L39.1873 25.153L40.9464 25.7822L40.8018 26.1962C40.6641 26.5841 40.5288 26.9744 40.3912 27.3647C39.5513 29.7634 38.6857 32.2449 37.5309 34.5726C34.701 40.2712 30.378 44.8722 25.355 47.5311C23.9132 48.2928 22.2451 49.0001 20.3111 49.0001Z" fill="#FDC012"/>
</g>
<defs>
<clipPath id="clip0_1_222">
<rect width="41" height="49" fill="white"/>
</clipPath>
</defs>
</svg>
