<svg width="41" height="43" viewBox="0 0 41 43" fill="none" xmlns="http://www.w3.org/2000/svg">
<g clip-path="url(#clip0_1_130)">
<path d="M6.2507 38.1296C6.2507 38.7558 6.25591 39.3293 6.24966 39.9038C6.24342 40.4731 5.91032 40.8726 5.44711 40.8811C4.96412 40.8905 4.5873 40.4741 4.5873 39.8922C4.58418 34.3418 4.58418 28.7904 4.5873 23.24C4.5873 22.6233 4.91519 22.2459 5.42213 22.2427C5.92802 22.2395 6.24342 22.6138 6.24862 23.2379C6.25383 23.9368 6.24966 24.6357 6.24966 25.4053C6.47658 25.4053 6.66083 25.4053 6.84403 25.4053C11.2149 25.4053 15.5857 25.4053 19.9566 25.4053C20.1127 25.4053 20.2709 25.3927 20.424 25.4137C20.8684 25.4738 21.1745 25.8418 21.1484 26.2919C21.1203 26.7642 20.8497 27.0446 20.3958 27.0804C19.9306 27.1173 19.4601 27.091 18.9916 27.091C14.9508 27.091 10.9088 27.091 6.86797 27.091C6.68269 27.091 6.49636 27.091 6.27777 27.091C6.26632 27.3155 6.2507 27.4863 6.24966 27.6571C6.24758 30.397 6.25799 33.1379 6.23717 35.8778C6.23405 36.2552 6.36729 36.3817 6.69622 36.4819C10.8172 37.7406 14.9362 39.0088 19.0499 40.2918C19.5038 40.433 19.8795 40.3877 20.2834 40.1558C26.3052 36.6885 32.3332 33.2307 38.3549 29.7645C39.3126 29.2131 39.6051 28.2348 39.1075 27.3588C38.6183 26.4964 37.6149 26.2719 36.6655 26.8169C34.0903 28.2959 31.5192 29.7824 28.9366 31.2488C28.6775 31.3964 28.3558 31.5049 28.0633 31.506C23.9704 31.5229 19.8764 31.5144 15.7835 31.5218C15.2995 31.5218 14.9164 31.3911 14.7821 30.884C14.6343 30.3253 15.0195 29.8467 15.6326 29.8361C16.5861 29.8193 17.5406 29.8309 18.4941 29.8309C21.5117 29.8309 24.5304 29.8382 27.5481 29.8193C27.8582 29.8172 28.1997 29.7233 28.4703 29.5705C30.98 28.1515 33.473 26.702 35.9806 25.2778C37.1152 24.6336 38.279 24.6357 39.3886 25.322C40.4982 26.0073 41.0509 27.0509 40.9916 28.3687C40.9354 29.6179 40.3327 30.5678 39.2574 31.1866C33.8821 34.2796 28.5036 37.3674 23.1262 40.4573C22.4486 40.8463 21.7584 41.2163 21.0954 41.6295C20.2845 42.1345 19.4559 42.1914 18.5565 41.91C14.6739 40.6966 10.786 39.5 6.90024 38.3004C6.70559 38.2403 6.50573 38.197 6.24654 38.1306L6.2507 38.1296Z" fill="#B5C6E6"/>
<path d="M36.5042 13.8902C36.4199 19.8359 32.8683 24.914 27.3368 26.9392C27.1286 27.0151 26.9006 27.0867 26.6852 27.0783C26.2448 27.0614 25.9825 26.7768 25.9284 26.3499C25.8691 25.885 26.1324 25.6172 26.5373 25.4222C27.5658 24.9277 28.6515 24.5124 29.5893 23.8767C33.6573 21.1178 35.6121 16.0102 34.5244 11.1978C33.4283 6.34841 29.5914 2.684 24.7646 1.87542C18.06 0.753745 11.8332 5.3912 10.9162 12.2393C10.4196 15.947 11.4554 19.215 13.8911 22.0276C14.0285 22.1857 14.1826 22.3291 14.3158 22.4915C14.6437 22.891 14.6312 23.3401 14.2929 23.6722C13.9598 23.999 13.4914 24.0137 13.1271 23.6553C12.768 23.3011 12.4297 22.9195 12.1184 22.521C5.67927 14.2855 10.1677 2.15373 20.3626 0.229804C27.8198 -1.17756 35.0969 4.026 36.2981 11.6384C36.4157 12.3816 36.4386 13.1396 36.5053 13.8902H36.5042Z" fill="#FDC012"/>
<path d="M1.66652 31.5134C1.66652 35.026 1.66756 38.5397 1.66444 42.0523C1.66444 42.5931 1.399 42.942 0.948284 42.9927C0.509013 43.0422 0.218595 42.8124 0.0582919 42.4171C0.00832741 42.2927 0.00312278 42.143 0.00312278 42.0049C0.00104093 35.0503 0.00208185 28.0946 0 21.139C0 20.7457 0.0739058 20.3515 0.469458 20.2323C0.732812 20.1522 1.13981 20.1596 1.32302 20.3177C1.53016 20.497 1.64987 20.887 1.65195 21.1864C1.67381 24.6294 1.66548 28.0714 1.66548 31.5145L1.66652 31.5134Z" fill="#B5C6E6"/>
<path d="M23.221 11.2642C22.9587 11.2642 22.7214 11.2642 22.484 11.2642C21.0226 11.2642 19.5601 11.2673 18.0986 11.261C17.6208 11.2589 17.2555 10.9932 17.1191 10.5884C16.9786 10.1699 17.0639 9.68917 17.4189 9.46462C17.6739 9.30333 18.0081 9.20213 18.3099 9.19686C19.8057 9.1705 21.3016 9.18526 22.7974 9.18526C22.9296 9.18526 23.0618 9.18526 23.2085 9.18526C22.9618 8.50635 22.2092 8.01087 21.3963 7.99717C20.3918 7.98136 19.3863 7.9919 18.3818 7.98979C18.2444 7.98979 18.107 7.99401 17.9716 7.97819C17.4595 7.916 17.0889 7.51645 17.0629 7.00833C17.0358 6.4886 17.3481 6.06165 17.8571 5.94463C17.9997 5.91195 18.1517 5.90879 18.2985 5.90879C21.085 5.90668 23.8716 5.90773 26.6582 5.90773C26.7269 5.90773 26.7956 5.90668 26.8632 5.9109C27.467 5.94779 27.8833 6.37475 27.8813 6.95456C27.8792 7.53227 27.4586 7.96871 26.8549 7.98452C26.2532 8.00033 25.6516 7.98768 25.0145 7.98768C25.1655 8.37563 25.2841 8.72141 25.4403 9.04927C25.4778 9.12728 25.6401 9.17366 25.7474 9.17999C26.1793 9.20529 26.6165 9.17999 27.0454 9.22954C27.4878 9.28225 27.799 9.62803 27.8677 10.0455C27.9406 10.4893 27.7563 10.9405 27.3629 11.1282C27.1568 11.2273 26.9028 11.2462 26.6686 11.261C26.3042 11.2831 25.866 11.145 25.5933 11.3074C25.3351 11.4602 25.256 11.9157 25.0864 12.2319C24.2515 13.7942 22.916 14.5079 21.1985 14.567C21.0642 14.5712 20.9289 14.567 20.6947 14.567C20.8342 14.7177 20.9091 14.8073 20.9924 14.8875C22.4768 16.3106 23.9632 17.7317 25.4465 19.1549C25.5704 19.274 25.6911 19.3995 25.7911 19.5376C26.0784 19.935 26.0482 20.4716 25.7338 20.8153C25.3882 21.1916 24.8761 21.2896 24.4576 21.0272C24.2567 20.9006 24.0829 20.7267 23.9101 20.5601C21.7721 18.5076 19.6309 16.4593 17.5084 14.3899C17.295 14.1822 17.116 13.8586 17.0744 13.5665C16.989 12.9635 17.4855 12.4934 18.1382 12.4881C19.1427 12.4797 20.1482 12.4849 21.1527 12.486C21.9688 12.487 22.6475 12.2035 23.1294 11.5108C23.1554 11.4729 23.1815 11.4339 23.2012 11.3928C23.2106 11.3738 23.2075 11.3485 23.2179 11.2642H23.221Z" fill="#FDC012"/>
</g>
<defs>
<clipPath id="clip0_1_130">
<rect width="41" height="43" fill="white"/>
</clipPath>
</defs>
</svg>
