<svg width="39" height="39" viewBox="0 0 39 39" fill="none" xmlns="http://www.w3.org/2000/svg">
<circle cx="19.219" cy="19.219" r="19.219" fill="#9150E8"/>
<g clip-path="url(#clip0_1_247)">
<path d="M16.6214 28.3271C15.6118 28.9783 14.4087 29.2622 13.2144 29.1309C12.0202 28.9995 10.9076 28.461 10.0637 27.6057L9.32594 26.8843C9.00251 26.5535 8.82141 26.1092 8.82141 25.6466C8.82141 25.184 9.00251 24.7396 9.32594 24.4089L12.4573 21.3103C12.7853 20.9879 13.2269 20.8073 13.6868 20.8073C14.1468 20.8073 14.5883 20.9879 14.9164 21.3103C15.2472 21.6338 15.6915 21.8148 16.1542 21.8148C16.6168 21.8148 17.0611 21.6338 17.3919 21.3103L22.3102 16.392C22.4743 16.2303 22.6046 16.0376 22.6935 15.8251C22.7824 15.6127 22.8282 15.3846 22.8282 15.1543C22.8282 14.9239 22.7824 14.6959 22.6935 14.4833C22.6046 14.2709 22.4743 14.0782 22.3102 13.9165C21.9878 13.5884 21.8072 13.1469 21.8072 12.6869C21.8072 12.2269 21.9878 11.7854 22.3102 11.4573L25.4251 8.34242C25.756 8.01898 26.2002 7.83789 26.6628 7.83789C27.1256 7.83789 27.5699 8.01898 27.9007 8.34242L28.6221 9.08017C29.4772 9.92404 30.0157 11.0367 30.1472 12.2309C30.2786 13.4252 29.9947 14.6283 29.3433 15.6379C25.9497 20.6393 21.6316 24.9463 16.6214 28.3271Z" stroke="white" stroke-width="2" stroke-linecap="round" stroke-linejoin="round"/>
</g>
<defs>
<clipPath id="clip0_1_247">
<rect width="23" height="23" fill="white" transform="translate(8 7)"/>
</clipPath>
</defs>
</svg>
