<svg width="52" height="43" viewBox="0 0 52 43" fill="none" xmlns="http://www.w3.org/2000/svg">
<g clip-path="url(#clip0_1_218)">
<path d="M18.3451 14.4281V42.895C18.0536 42.9362 17.8299 42.9938 17.6083 42.9938C12.2068 43 6.80523 42.9979 1.40575 42.9979C1.33803 42.9979 1.26825 42.9938 1.20052 42.9979C0.510968 43.033 0.0225313 42.724 0.00200875 42.0299C-0.020566 41.2493 0.533542 41.0042 1.24362 41.0042C3.73916 41.0103 6.2347 41.0042 8.73024 41.0042C9.77894 41.0042 10.8297 41.0042 11.9954 41.0042C11.9954 40.4831 11.9954 40.0814 11.9954 39.6798C11.9954 32.3041 12.0056 24.9263 11.9769 17.5506C11.9749 16.7844 12.1739 16.2962 12.8265 15.8637C14.4786 14.77 16.0978 13.6186 17.6904 12.4384C18.2014 12.0594 18.5441 12.0986 19.0305 12.4549C20.6846 13.6701 22.3859 14.8174 24.0277 16.0491C24.352 16.2921 24.6783 16.7926 24.6783 17.1736C24.7132 25.5442 24.7029 33.9168 24.7009 42.2874C24.7009 42.4871 24.6701 42.6849 24.6516 42.9382H22.7164C22.7164 42.5098 22.7164 42.1411 22.7164 41.7724C22.7164 34.0198 22.7061 26.2651 22.7307 18.5124C22.7328 17.7792 22.5275 17.3219 21.8996 16.9224C20.7523 16.1932 19.6688 15.3632 18.3451 14.426V14.4281Z" fill="#B5C6E6"/>
<path d="M33.7 22.6812C33.7 23.505 33.7 24.0426 33.7 24.5781C33.7 30.2773 33.6815 35.9744 33.7205 41.6735C33.7267 42.5592 33.5133 42.9031 32.5939 42.8619C31.1942 42.8002 29.7905 42.8352 28.3888 42.8661C27.8162 42.8784 27.5987 42.6724 27.6007 42.0937C27.613 36.6005 27.5966 31.1094 27.6336 25.6162C27.6356 25.2537 27.9332 24.7759 28.239 24.5493C29.8849 23.3217 31.5882 22.1745 33.2424 20.9613C33.6815 20.638 33.9812 20.6565 34.406 20.9655C36.0355 22.158 37.6732 23.3382 39.3417 24.4731C39.9307 24.8727 40.0887 25.3485 40.0866 26.022C40.0641 30.6563 40.101 35.2905 40.0497 39.9248C40.0374 40.9423 40.3781 41.1998 41.3406 41.1854C44.4867 41.1359 47.6328 41.1771 50.7809 41.1709C51.3946 41.1709 52.002 41.1606 52.002 42.0092C52.002 42.8475 51.372 42.8887 50.7789 42.8887C47.052 42.8846 43.323 42.8228 39.5961 42.8743C38.529 42.8887 38.295 42.5448 38.3073 41.5293C38.3607 36.6891 38.3114 31.8488 38.3545 27.0086C38.3627 26.1826 38.0959 25.6801 37.4228 25.2475C36.2489 24.4937 35.1202 23.6657 33.7021 22.6812H33.7Z" fill="#B5C6E6"/>
<path d="M26.0924 24.1004C26.0924 21.5752 26.0698 19.1468 26.1067 16.7185C26.117 16.0264 25.9015 15.5939 25.3146 15.2128C24.1119 14.4302 22.9401 13.596 21.8073 12.7124C21.5138 12.4838 21.2655 12.0059 21.2573 11.6352C21.2059 9.47456 21.2142 7.31395 21.249 5.15334C21.2552 4.82997 21.4214 4.39126 21.6657 4.21207C23.5886 2.79089 25.5506 1.4212 27.5454 0.0020752C29.5401 1.42326 31.5247 2.81972 33.4784 4.25944C33.696 4.42009 33.8335 4.82585 33.8335 5.12039C33.8581 9.40865 33.8314 13.6948 33.8725 17.9831C33.8848 19.2478 32.6904 19.2292 32.0521 20.1499C32.0029 19.6288 31.9598 19.3796 31.9598 19.1324C31.9557 14.9142 31.9392 10.6939 31.9741 6.47566C31.9803 5.73829 31.7504 5.28722 31.1348 4.8897C29.9629 4.13174 28.8465 3.28933 27.492 2.32952C27.492 2.91035 27.492 3.29757 27.492 3.68479C27.492 9.75673 27.4612 15.8266 27.5248 21.8986C27.5351 22.984 27.2396 23.6658 26.0924 24.1045V24.1004Z" fill="#FDC012"/>
</g>
<defs>
<clipPath id="clip0_1_218">
<rect width="52" height="43" fill="white"/>
</clipPath>
</defs>
</svg>
